<?xml version="1.0" encoding="UTF-8"?>
<svg xmlns="http://www.w3.org/2000/svg" xmlns:xlink="http://www.w3.org/1999/xlink" version="1.1" width="512" height="512" x="0" y="0" viewBox="0 0 128 128" style="enable-background:new 0 0 512 512" xml:space="preserve" class="">
  <g>
    <circle cx="64" cy="64" r="57.5" fill="#8a6b5b" opacity="1" data-original="#3ea7fb"/>
    <path fill="#f7c6c6" d="M121.5 64a57.521 57.521 0 0 1-77.17 54.04c.14-5.71 1.61-10.915 16.09-15.74 5.645-1.881 5.88-9.99 5.94-15.95l.15-13.94c.03-2.93.16-6.14 2.09-8.35 2.52-2.89 7.06-2.84 10.72-1.72s7.14 3.1 10.97 3.32c5.68.32 10.75-3.22 16.04-5.31a49.092 49.092 0 0 1 14.79-2.94 57.314 57.314 0 0 1 .38 6.59z" opacity="1" data-original="#95d70b" class=""/>
    <path fill="#b881b1" d="M113.325 50.926a1.751 1.751 0 0 1-1.675-1.245 49.386 49.386 0 0 0-2-5.449 1.75 1.75 0 0 1 3.211-1.394A53.312 53.312 0 0 1 115 48.67a1.752 1.752 0 0 1-1.677 2.256z" opacity="1" data-original="#0f89cc" class=""/>
    <path fill="#f7c6c6" d="M44.75 18.97c.19 2.34.68 4.87-.53 6.87-1.13 1.86-3.36 2.65-5.37 3.48-3.45 1.43-6.84 3.5-8.64 6.77-1.49 2.72-1.71 5.93-2.58 8.91s-2.81 6.05-5.87 6.57c-4.58.78-7.93-4.39-12.25-5.98A57.609 57.609 0 0 1 45.94 9.4a24.092 24.092 0 0 0-1.19 9.57z" opacity="1" data-original="#95d70b" class=""/>
    <g fill="#ededf9">
      <path d="M40.506 62.092a1.75 1.75 0 0 1-1.286-2.936 36.343 36.343 0 0 1 2.621-2.579 1.75 1.75 0 1 1 2.318 2.623 32.614 32.614 0 0 0-2.367 2.329 1.744 1.744 0 0 1-1.286.563zM27.119 102.661a1.751 1.751 0 0 1-1.72-1.437 36.831 36.831 0 0 1-.575-6.557c0-.376.006-.749.017-1.121a1.75 1.75 0 1 1 3.5.1 44.22 44.22 0 0 0-.015 1.03 33.263 33.263 0 0 0 .519 5.926 1.75 1.75 0 0 1-1.409 2.034 1.694 1.694 0 0 1-.317.025zm.318-14.608a1.7 1.7 0 0 1-.345-.035 1.749 1.749 0 0 1-1.372-2.059 53.685 53.685 0 0 1 2.026-7.316 1.75 1.75 0 0 1 3.3 1.165 50.285 50.285 0 0 0-1.9 6.838 1.749 1.749 0 0 1-1.709 1.407zm4.84-13.834a1.749 1.749 0 0 1-1.562-2.535 59.791 59.791 0 0 1 3.811-6.537 1.75 1.75 0 1 1 2.9 1.953 56.484 56.484 0 0 0-3.589 6.154 1.749 1.749 0 0 1-1.56.965zM30.908 112.776a1.749 1.749 0 0 1-1.5-.846 30.7 30.7 0 0 1-1.723-3.29 1.75 1.75 0 1 1 3.193-1.433 27.35 27.35 0 0 0 1.526 2.914 1.751 1.751 0 0 1-1.5 2.655z" fill="#f7f1ed" opacity="1" data-original="#ededf9" class=""/>
    </g>
    <path fill="#f5e2d7" d="m92.861 26.832-20.276-7.7-5.055 4.461 12.281 10.745z" opacity="1" data-original="#dddde3" class=""/>
    <path fill="#f7f1ed" d="m58.733 55.418 57.621-29.068a3.488 3.488 0 0 0 1.568-4.633 3.485 3.485 0 0 0-3.311-1.965l-4.091.2a11.173 11.173 0 0 0-11.386.095l-44.6 26.915L50.443 45a6 6 0 0 0-6.254.644L43 46.552l9.057 8.005a6 6 0 0 0 6.676.861z" opacity="1" data-original="#ededf9" class=""/>
    <path fill="#f5e2d7" d="m96.035 30.053-2.157 25.213-6.211 2.622L82.124 37.9z" opacity="1" data-original="#dddde3" class=""/>
  </g>
</svg>
