<?xml version="1.0" encoding="UTF-8"?>
<svg xmlns="http://www.w3.org/2000/svg" xmlns:xlink="http://www.w3.org/1999/xlink" version="1.1" width="512" height="512" x="0" y="0" viewBox="0 0 128 128" style="enable-background:new 0 0 512 512" xml:space="preserve" class="">
  <g>
    <path fill="#dbbda8" d="M20.44 64c0 3.8 4.2 7 5.14 10.49s-1 8.48.78 11.65 7.1 3.9 9.71 6.51 3.29 7.84 6.5 9.7 8-.18 11.66.79 6.69 5.14 10.49 5.14 7-4.2 10.49-5.14 8.48 1 11.65-.79 3.89-7.09 6.51-9.7 7.84-3.29 9.7-6.5-.18-8 .79-11.66S109 67.8 109 64s-4.2-7-5.14-10.49 1-8.48-.79-11.66-7.07-3.85-9.7-6.5-3.29-7.84-6.51-9.7-8 .18-11.65-.79-6.7-5.14-10.49-5.14-7 4.2-10.49 5.14-8.49-1.05-11.66.78-3.89 7.1-6.5 9.71-7.84 3.29-9.71 6.5.18 8-.78 11.66S20.44 60.2 20.44 64z" opacity="1" data-original="#009d8f" class=""/>
    <path fill="#f7f1ed" d="M59 80.82a4.51 4.51 0 0 0 3.18-1.32l24.63-24.64a4.5 4.5 0 0 0-6.37-6.36L59 70 47.56 58.52a4.5 4.5 0 1 0-6.37 6.37L55.81 79.5A4.51 4.51 0 0 0 59 80.82z" opacity="1" data-original="#fff7ed" class=""/>
  </g>
</svg>
