<?xml version="1.0" encoding="UTF-8"?>
<svg xmlns="http://www.w3.org/2000/svg" xmlns:xlink="http://www.w3.org/1999/xlink" version="1.1" width="512" height="512" x="0" y="0" viewBox="0 0 128 128" style="enable-background:new 0 0 512 512" xml:space="preserve" class="">
  <g>
    <path fill="#8a6b5b" d="M84.692 35.25a3 3 0 0 0-3 3 3 3 0 0 0-3-3H6.5v57.5h72.192a3 3 0 0 0 3-3 3 3 0 0 0 3 3H121.5v-57.5z" opacity="1" data-original="#f5502f" class=""/>
    <path fill="#f7f1ed" d="M12.5 56.25a1.75 1.75 0 0 1-1.75-1.75v-6a1.75 1.75 0 0 1 3.5 0v6a1.75 1.75 0 0 1-1.75 1.75z" opacity="1" data-original="#d63922" class=""/>
    <path fill="#f7c6c6" d="M84.692 35.25H121.5v57.5H84.692a3 3 0 0 1-3-3v-51.5a3 3 0 0 1 3-3z" opacity="1" data-original="#f9d42f" class=""/>
    <g fill="#ededf9">
      <path d="M113.6 59.8h-24a1.75 1.75 0 0 1 0-3.5h24a1.75 1.75 0 0 1 0 3.5zM113.6 47.7h-24a1.75 1.75 0 0 1 0-3.5h24a1.75 1.75 0 0 1 0 3.5zM113.6 65.8h-24a1.75 1.75 0 0 1 0-3.5h24a1.75 1.75 0 0 1 0 3.5zM113.6 71.8h-24a1.75 1.75 0 0 1 0-3.5h24a1.75 1.75 0 0 1 0 3.5zM113.6 77.8h-24a1.75 1.75 0 0 1 0-3.5h24a1.75 1.75 0 0 1 0 3.5zM110.6 83.8h-18a1.75 1.75 0 0 1 0-3.5h18a1.75 1.75 0 0 1 0 3.5z" fill="#f7f1ed" opacity="1" data-original="#ededf9" class=""/>
    </g>
    <path fill="#f5e2d7" d="M56.79 66.69H46.349l-1.14 15.361h4.136zM56.79 61.31H46.349l-1.14-15.361h4.136z" opacity="1" data-original="#dddde3" class=""/>
    <g fill="#dddde3">
      <path d="M32.929 65.41h-5.905l-1.506 8.051h3.706zM32.929 62.59h-5.905l-1.506-8.051h3.706z" fill="#f5e2d7" opacity="1" data-original="#dddde3" class=""/>
    </g>
    <path fill="#f7f1ed" d="M63.914 61.242a15.313 15.313 0 0 0-9.635-2.319l-29.4 2.754A2.333 2.333 0 0 0 22.763 64a2.333 2.333 0 0 0 2.116 2.323l29.4 2.754a15.313 15.313 0 0 0 9.635-2.319A3.267 3.267 0 0 0 65.429 64a3.267 3.267 0 0 0-1.515-2.758z" opacity="1" data-original="#ededf9" class=""/>
  </g>
</svg>
