<?xml version="1.0" encoding="UTF-8"?>
<svg xmlns="http://www.w3.org/2000/svg" xmlns:xlink="http://www.w3.org/1999/xlink" version="1.1" width="512" height="512" x="0" y="0" viewBox="0 0 128 128" style="enable-background:new 0 0 512 512" xml:space="preserve" class="">
  <g>
    <path fill="#dbbda8" d="M118.13 22.52 77.272 11.935 69.23 9.85a3.416 3.416 0 0 0-4.18 2.46l-9.86 38.06-13.2 50.93a3.416 3.416 0 0 0 2.46 4.18L53 108l.071-.283L93.35 118.15a3.425 3.425 0 0 0 4.18-2.46l14.77-57.007 8.29-31.983a3.431 3.431 0 0 0-2.46-4.18z" opacity="1" data-original="#dcc69f" class=""/>
    <path fill="#efeedc" d="m106.482 34.53-3.351 3.37-8.464-2.252 7.424-8.262a1.75 1.75 0 1 0-2.6-2.34l-8.619 9.592-8.256-2.2a1.75 1.75 0 0 0-.9 3.383l8.255 2.2L92.7 50.7a1.752 1.752 0 0 0 1.709 1.383 1.815 1.815 0 0 0 .371-.04 1.751 1.751 0 0 0 1.34-2.083l-2.353-10.934 8.464 2.252 1.361 5.049a1.752 1.752 0 0 0 1.689 1.3 1.715 1.715 0 0 0 .456-.062 1.749 1.749 0 0 0 1.234-2.145l-1.361-5.049L108.962 37a1.75 1.75 0 1 0-2.48-2.47z" opacity="1" data-original="#efeedc" class=""/>
    <g fill="#9d6734">
      <path d="m105.521 61.95-3.314-.882a1.75 1.75 0 0 0-.9 3.383l3.314.881a1.716 1.716 0 0 0 .451.06 1.75 1.75 0 0 0 .448-3.442zM95.8 59.365l-3.315-.882a1.75 1.75 0 0 0-.9 3.383l3.314.882a1.75 1.75 0 0 0 .9-3.383zM86.086 56.78l-3.315-.88a1.75 1.75 0 1 0-.9 3.383l3.315.882a1.75 1.75 0 0 0 .9-3.383zM94.628 83.493a1.752 1.752 0 0 0-2.141 1.241l-6.412 24.107a1.75 1.75 0 1 0 3.383.9l6.412-24.107a1.75 1.75 0 0 0-1.242-2.141zM98.4 69.331a1.753 1.753 0 0 0-2.142 1.241L94.865 75.8a1.751 1.751 0 0 0 1.242 2.141 1.716 1.716 0 0 0 .451.06 1.752 1.752 0 0 0 1.69-1.3l1.389-5.223a1.75 1.75 0 0 0-1.237-2.147zM86.745 66.231a1.753 1.753 0 0 0-2.145 1.242L83.214 72.7a1.75 1.75 0 1 0 3.383.9l1.389-5.223a1.75 1.75 0 0 0-1.241-2.146z" fill="#8a6b5b" opacity="1" data-original="#9d6734" class=""/>
    </g>
    <rect width="68.597" height="84.082" x="7.303" y="30.378" fill="#f7c6c6" rx="3.43" opacity="1" data-original="#d24751" class=""/>
    <g fill="#edcc6e">
      <path d="M60.622 99.355H22.581a1.75 1.75 0 0 0 0 3.5h38.041a1.75 1.75 0 0 0 0-3.5zM41.6 41.982a22.008 22.008 0 0 0-20.569 29.856 1.89 1.89 0 0 0 .073.186 22.009 22.009 0 0 0 41 0 1.67 1.67 0 0 0 .073-.186A22.008 22.008 0 0 0 41.6 41.982zm4.255 14.24h-8.509a39.782 39.782 0 0 1 4.254-9.273 39.818 39.818 0 0 1 4.257 9.273zm.838 3.5a26.6 26.6 0 0 1-.072 9.8H36.58a26.581 26.581 0 0 1-.071-9.8zM38.21 45.808a41.883 41.883 0 0 0-4.49 10.414h-8.9a18.555 18.555 0 0 1 13.39-10.414zM23.084 64a18.455 18.455 0 0 1 .519-4.278h9.376a30.156 30.156 0 0 0 .05 9.8h-9.1A18.448 18.448 0 0 1 23.084 64zm2.364 9.025h8.393a36.371 36.371 0 0 0 4.193 9.14 18.562 18.562 0 0 1-12.586-9.14zm12.039 0h8.229a34.356 34.356 0 0 1-4.116 8.223 34.324 34.324 0 0 1-4.113-8.223zm7.682 9.14a36.336 36.336 0 0 0 4.193-9.14h8.393a18.562 18.562 0 0 1-12.586 9.14zM60.119 64a18.448 18.448 0 0 1-.843 5.525h-9.1a30.212 30.212 0 0 0 .05-9.8H59.6A18.455 18.455 0 0 1 60.119 64zm-10.636-7.778a41.846 41.846 0 0 0-4.49-10.414 18.555 18.555 0 0 1 13.39 10.414z" fill="#b881b1" opacity="1" data-original="#edcc6e" class=""/>
    </g>
  </g>
</svg>
