<?xml version="1.0" encoding="UTF-8"?>
<svg xmlns="http://www.w3.org/2000/svg" xmlns:xlink="http://www.w3.org/1999/xlink" version="1.1" width="512" height="512" x="0" y="0" viewBox="0 0 128 128" style="enable-background:new 0 0 512 512" xml:space="preserve" class="">
  <g>
    <path fill="#f7c6c6" d="M73.022 27.2a48.817 48.817 0 1 0 30.15 18.85z" opacity="1" data-original="#7cd6f3"/>
    <g fill="#8acd75">
      <path d="m38.6 43.344-7.762-4A48.79 48.79 0 0 0 16.1 84.632l8.939-12.094a12.619 12.619 0 0 1 7.728-4.892l2.732-.538A12.64 12.64 0 0 0 38.6 43.344zM55.647 107.048l-3.566-.56a7.075 7.075 0 0 1-5.693-5.11l-2.4-8.8a7.057 7.057 0 0 0-12.952-1.6L24.1 103.31A48.718 48.718 0 0 0 63.512 124c-.526-2.938-1.384-7.659-2.035-11.248a7.058 7.058 0 0 0-5.83-5.704zM76.661 92.643l-4.587 4.748A3.756 3.756 0 0 0 71.019 100v1.787a3.756 3.756 0 0 0 3.756 3.755h1.017a3.754 3.754 0 0 0 3.3-1.954l3.571-6.535a3.756 3.756 0 0 0-6-4.41zM73.022 27.2a48.844 48.844 0 0 0-9.03-.84l3.29 16.84a10.791 10.791 0 0 1-3.64 10.31 10.8 10.8 0 0 0-3.85 8.25 10.569 10.569 0 0 0 .69 3.78l3.84 10.27a10.8 10.8 0 0 0 14.85 5.9l16.22-7.98a10.788 10.788 0 0 1 13.02 2.76l4.04 4.72a49.946 49.946 0 0 0 .36-6.03 48.565 48.565 0 0 0-9.64-29.13z" fill="#b09578" opacity="1" data-original="#8acd75" class=""/>
    </g>
    <path fill="#dbbda8" d="M92.8 4a20 20 0 0 0-17.321 30L89.59 58.441a3.706 3.706 0 0 0 6.419 0L110.12 34A20 20 0 0 0 92.8 4z" opacity="1" data-original="#ff7a8c" class=""/>
    <circle cx="92.8" cy="24.03" r="11.002" fill="#f7f1ed" transform="rotate(-80.8 92.792 24.043)" opacity="1" data-original="#fdcb71" class=""/>
    <path fill="#b881b1" d="M95.969 18.309a1.749 1.749 0 0 0-1.75 1.75v2.221h-2.838v-2.221a1.75 1.75 0 1 0-3.5 0V28a1.75 1.75 0 1 0 3.5 0v-2.22h2.838V28a1.75 1.75 0 1 0 3.5 0v-7.941a1.75 1.75 0 0 0-1.75-1.75z" opacity="1" data-original="#696eaf" class=""/>
  </g>
</svg>
