<?xml version="1.0" encoding="UTF-8"?>
<svg xmlns="http://www.w3.org/2000/svg" xmlns:xlink="http://www.w3.org/1999/xlink" version="1.1" width="512" height="512" x="0" y="0" viewBox="0 0 128 128" style="enable-background:new 0 0 512 512" xml:space="preserve" class="">
  <g>
    <path fill="#b09578" d="M94.836 7.242H23.893v113.516h70.943a13.451 13.451 0 0 0 13.45-13.451V20.693a13.451 13.451 0 0 0-13.45-13.451z" opacity="1" data-original="#696eaf"/>
    <path fill="#f7c6c6" d="M19.714 11.421v105.158a4.179 4.179 0 0 0 4.179 4.179h12.894V7.242H23.893a4.179 4.179 0 0 0-4.179 4.179z" opacity="1" data-original="#d1d1fd" class=""/>
    <path fill="#f7f1ed" d="M72.42 17.921a28.4 28.4 0 1 0 28.4 28.4 28.434 28.434 0 0 0-28.4-28.4zM62.277 23.59A30.386 30.386 0 0 0 57.1 34.747a28.288 28.288 0 0 0-8.374 3.941A25.02 25.02 0 0 1 62.277 23.59zm-6 15.109a49.464 49.464 0 0 0 0 15.247c-5.492-2-8.762-4.9-8.762-7.623s3.274-5.623 8.766-7.623zm-7.56 15.259A28.288 28.288 0 0 0 57.1 57.9a30.381 30.381 0 0 0 5.182 11.156 25.021 25.021 0 0 1-13.561-15.098zm21.953 17.03c-4.035-1.056-7.556-5.688-9.6-12.086a55.8 55.8 0 0 0 9.6 1.073zm0-14.514a50.754 50.754 0 0 1-10.595-1.38 43.906 43.906 0 0 1 0-17.542 50.754 50.754 0 0 1 10.6-1.38zm0-23.8a55.9 55.9 0 0 0-9.6 1.074c2.044-6.4 5.566-11.031 9.6-12.087zm3.5-11.013c4.036 1.056 7.557 5.688 9.6 12.087a55.9 55.9 0 0 0-9.6-1.074zm0 14.515a50.764 50.764 0 0 1 10.6 1.38 43.955 43.955 0 0 1 0 17.542 50.764 50.764 0 0 1-10.6 1.38zm0 34.816V59.975a55.8 55.8 0 0 0 9.6-1.073c-2.043 6.398-5.564 11.03-9.6 12.086zm8.394-1.933A30.413 30.413 0 0 0 87.746 57.9a28.293 28.293 0 0 0 8.373-3.941 25.017 25.017 0 0 1-13.555 15.096zm6-15.109a49.547 49.547 0 0 0 0-15.247c5.492 2.005 8.761 4.9 8.761 7.624s-3.273 5.615-8.765 7.619zm-.814-19.2a30.418 30.418 0 0 0-5.186-11.16 25.019 25.019 0 0 1 13.555 15.1 28.293 28.293 0 0 0-8.373-3.943z" opacity="1" data-original="#fdb158" class=""/>
    <g fill="#d1d1fd">
      <path d="M94.913 83.917H49.676a1.75 1.75 0 0 0 0 3.5h45.237a1.75 1.75 0 0 0 0-3.5zM84.62 98.5h-25.6a1.75 1.75 0 0 0 0 3.5h25.6a1.75 1.75 0 0 0 0-3.5z" fill="#f7c6c6" opacity="1" data-original="#d1d1fd" class=""/>
    </g>
  </g>
</svg>
