<?xml version="1.0" encoding="UTF-8"?>
<svg xmlns="http://www.w3.org/2000/svg" xmlns:xlink="http://www.w3.org/1999/xlink" version="1.1" width="512" height="512" x="0" y="0" viewBox="0 0 128 128" style="enable-background:new 0 0 512 512" xml:space="preserve" class="">
  <g>
    <path fill="#b09578" d="M6.964 105.681a4.355 4.355 0 0 0 4.355 4.354h105.362a4.355 4.355 0 0 0 4.355-4.354V22.319H6.964z" opacity="1" data-original="#ecebfd" class=""/>
    <path fill="#8a6b5b" d="M116.681 17.965H11.319a4.354 4.354 0 0 0-4.355 4.354v34.626h114.072V22.319a4.354 4.354 0 0 0-4.355-4.354z" opacity="1" data-original="#696eaf" class=""/>
    <g fill="#fdcb71">
      <path d="M47.92 25.97a1.747 1.747 0 0 0-2.266 1l-5.982 15.358-5.983-15.362a1.75 1.75 0 1 0-3.261 1.269l7.613 19.55a1.75 1.75 0 0 0 3.262 0l7.613-19.55a1.749 1.749 0 0 0-.996-2.265zM89.959 27.124a1.75 1.75 0 0 0-3.262 0l-7.613 19.55a1.75 1.75 0 0 0 3.262 1.269l1.718-4.412h8.528l1.719 4.412a1.75 1.75 0 1 0 3.261-1.269zm-4.532 12.907 2.9-7.45 2.9 7.45zM55.737 25.851a1.75 1.75 0 0 0-1.75 1.75V47.15a1.75 1.75 0 0 0 3.5 0V27.6a1.749 1.749 0 0 0-1.75-1.749zM67.246 29.689h5.529a1.75 1.75 0 0 0 0-3.5h-5.529a5.326 5.326 0 0 0-5.319 5.32v2.3a5.326 5.326 0 0 0 5.319 5.319h1.96a1.82 1.82 0 0 1 1.819 1.818v2.614a1.82 1.82 0 0 1-1.819 1.818h-5.529a1.75 1.75 0 0 0 0 3.5h5.529a5.325 5.325 0 0 0 5.319-5.318v-2.616a5.325 5.325 0 0 0-5.319-5.318h-1.96a1.821 1.821 0 0 1-1.819-1.819v-2.3a1.822 1.822 0 0 1 1.819-1.818z" fill="#f7f1ed" opacity="1" data-original="#fdcb71" class=""/>
    </g>
    <circle cx="33.921" cy="75.737" r="7.592" fill="#f7c6c6" opacity="1" data-original="#ff7a8c" class=""/>
    <path fill="#f7c6c6" d="M40.333 83.329H27.508a5.893 5.893 0 0 0-5.893 5.893v9.451h24.611v-9.451a5.893 5.893 0 0 0-5.893-5.893z" opacity="1" data-original="#ff7a8c" class=""/>
    <g fill="#d1d1fd">
      <path d="M105.74 68.2h-31.1a1.75 1.75 0 0 0 0 3.5h31.1a1.75 1.75 0 1 0 0-3.5zM105.74 81.579h-31.1a1.75 1.75 0 0 0 0 3.5h31.1a1.75 1.75 0 0 0 0-3.5zM105.74 94.956H89.432a1.75 1.75 0 0 0 0 3.5h16.308a1.75 1.75 0 0 0 0-3.5z" fill="#f5e2d7" opacity="1" data-original="#d1d1fd" class=""/>
    </g>
  </g>
</svg>
