<?xml version="1.0" encoding="UTF-8"?>
<svg xmlns="http://www.w3.org/2000/svg" xmlns:xlink="http://www.w3.org/1999/xlink" version="1.1" width="512" height="512" x="0" y="0" viewBox="0 0 512 512" style="enable-background:new 0 0 512 512" xml:space="preserve" class="">
  <g>
    <path d="M324.662 504.5H22.5c-8.284 0-15-6.716-15-15V293.995c0-8.284 6.716-15 15-15h302.162c8.284 0 15 6.716 15 15V489.5c0 8.284-6.716 15-15 15zM96.831 278.995V231c0-13.807 11.193-25 25-25h103.5c13.807 0 25 11.193 25 25v47.995h-153.5z" style="stroke-width:15;stroke-miterlimit:10;" fill="none" stroke="#8a6b5b" stroke-width="15" stroke-miterlimit="10" data-original="#000000" class="" opacity="1"/>
    <path d="M220.331 278.995h-93.5V241a5 5 0 0 1 5-5h83.5a5 5 0 0 1 5 5v37.995zM96.831 440.375V504.5H57.706V278.995h39.125v146.13M250.331 278.995h39.125V504.5h-39.125z" style="stroke-width:15;stroke-miterlimit:10;" fill="none" stroke="#8a6b5b" stroke-width="15" stroke-miterlimit="10" data-original="#000000" class="" opacity="1"/>
    <path d="M137.789 333.438h62.814v39.624h-62.814z" style="stroke-width:15;stroke-miterlimit:10;" transform="rotate(-30 169.177 353.253)" fill="none" stroke="#8a6b5b" stroke-width="15" stroke-miterlimit="10" data-original="#000000" class="" opacity="1"/>
    <path d="M170.995 419.03h39.624v39.624h-39.624z" style="stroke-width:15;stroke-miterlimit:10;" transform="rotate(14.999 190.819 438.875)" fill="none" stroke="#8a6b5b" stroke-width="15" stroke-miterlimit="10" data-original="#000000" class="" opacity="1"/>
    <path d="M280.75 146.13h-12.89c-9.68 0-17.53 7.85-17.53 17.53v115.33M339.66 464.64h147.31c9.68 0 17.53-7.85 17.53-17.53V163.66c0-9.68-7.85-17.53-17.53-17.53H296" style="stroke-width:15;stroke-miterlimit:10;stroke-dasharray:677,15;" fill="none" stroke="#8a6b5b" stroke-width="15" stroke-miterlimit="10" stroke-dasharray="677,15" data-original="#000000" class="" opacity="1"/>
    <path d="M418.392 37.5h-81.953c-8.284 0-15-6.716-15-15 0-8.284 6.716-15 15-15h81.953c8.284 0 15 6.716 15 15 0 8.284-6.716 15-15 15zM340.749 37.5v108.631M414.082 37.5v108.631M447.167 504.5c-10.033 0-18.167-8.133-18.167-18.167v-21.69h36.333v21.69c0 10.034-8.133 18.167-18.166 18.167z" style="stroke-width:15;stroke-miterlimit:10;" fill="none" stroke="#8a6b5b" stroke-width="15" stroke-miterlimit="10" data-original="#000000" class="" opacity="1"/>
    <path d="M465.35 235.25V202.9c0-2.76-2.23-5-5-5H294.48c-2.76 0-5 2.24-5 5v76.09M465.35 265.375v-15M339.66 464.64h125.69V280.25" style="stroke-width:15;stroke-miterlimit:10;stroke-dasharray:310,15,15,15;" fill="none" stroke="#8a6b5b" stroke-width="15" stroke-miterlimit="10" stroke-dasharray="310,15,15,15" data-original="#000000" class="" opacity="1"/>
    <path d="M320.374 238.497h114.083M410.667 238.497v28.836" style="stroke-width:15;stroke-miterlimit:10;" fill="none" stroke="#8a6b5b" stroke-width="15" stroke-miterlimit="10" data-original="#000000" class="" opacity="1"/>
    <path d="M435.331 427v14.959M435.331 396.96V411.833" style="stroke-width:15;stroke-miterlimit:10;stroke-dasharray:15,15;" fill="none" stroke="#8a6b5b" stroke-width="15" stroke-miterlimit="10" stroke-dasharray="15,15" data-original="#000000" class="" opacity="1"/>
  </g>
</svg>
