<?xml version="1.0" encoding="UTF-8"?>
<svg xmlns="http://www.w3.org/2000/svg" xmlns:xlink="http://www.w3.org/1999/xlink" version="1.1" width="512" height="512" x="0" y="0" viewBox="0 0 512 512.001" style="enable-background:new 0 0 512 512" xml:space="preserve" class="">
  <g>
    <path d="m469.398 378.145 20.52-20.52c11.93-11.93 25.773-43.719 11.703-57.785-14.066-14.067-45.855-.227-57.785 11.703l-20.52 20.523-114.48-21.203a7.758 7.758 0 0 0-6.899 2.14l-10.242 10.243c-3.207 3.207-2.922 8.652.598 11.512l70.852 57.48-24.993 24.989-28.562-2.594a7.722 7.722 0 0 0-6.192 2.238l-11.703 11.703c-3.34 3.34-2.863 9.059.977 11.801l39.91 28.504 28.504 39.91c2.746 3.84 8.46 4.316 11.8.977l11.704-11.703a7.761 7.761 0 0 0 2.242-6.188l-2.598-28.566 24.989-24.989 57.48 70.848c2.856 3.52 8.3 3.805 11.512.598l10.238-10.239a7.756 7.756 0 0 0 2.145-6.898zm-14.59-55.63c7.157-7.156 22.329-13.14 30.75-13.14 2.301 0 4.102.445 5.09 1.438 4.625 4.625-2.593 26.734-11.699 35.84L367.77 457.831c-4.68 4.68-11.417 6.055-17.32 4.156l22.438-22.441a7.752 7.752 0 0 0 0-10.969 7.752 7.752 0 0 0-10.969 0l-22.453 22.45c-.54-1.68-.832-3.45-.832-5.262 0-4.559 1.773-8.844 5-12.07zm-146.054 5.618 1.27-1.27 99.98 18.516-35.828 35.828zm3.05 102.281 14.473 1.316a32.361 32.361 0 0 0-3.05 11.403l-14.082-10.059zm56.587 61.906-10.07-14.097a32.587 32.587 0 0 0 11.413-3.055l1.317 14.492zm104.941.387-53.078-65.418 35.832-35.828 18.512 99.98zM295.582 474.96c-2.61.552-5.254 1.063-7.86 1.52a7.76 7.76 0 0 0 2.676 15.286 255.586 255.586 0 0 0 8.387-1.618c4.192-.886 6.875-5.003 5.988-9.195-.882-4.191-5-6.871-9.191-5.992zM476.086 207.262a236.407 236.407 0 0 1 2.234 15.933c.442 4.203 4.32 7.348 8.528 6.907 4.203-.446 7.343-4.325 6.902-8.528a249.724 249.724 0 0 0-2.383-16.996 7.76 7.76 0 0 0-8.984-6.3 7.76 7.76 0 0 0-6.297 8.984zM233.09 15.934c.152 0 .305-.004.46-.012 5.321-.313 10.75-.445 16.098-.395h.075c4.25 0 7.714-3.43 7.754-7.691a7.756 7.756 0 0 0-7.688-7.824c-5.687-.051-11.476.086-17.148.418-4.164.246-7.47 3.886-7.297 8.054.168 4.102 3.633 7.45 7.746 7.45zM137.57 42.055c1.2 0 2.414-.278 3.551-.864a232.43 232.43 0 0 1 14.531-6.863 7.756 7.756 0 0 0 4.059-10.191 7.762 7.762 0 0 0-10.195-4.063 248.277 248.277 0 0 0-15.508 7.324c-3.051 1.575-4.735 5.082-4.047 8.446.73 3.574 3.965 6.21 7.61 6.21zM55.875 102.871c3.285 2.66 8.25 2.137 10.91-1.144A234.454 234.454 0 0 1 77.34 89.57a7.764 7.764 0 0 0-.395-10.968A7.763 7.763 0 0 0 65.98 79a249.607 249.607 0 0 0-11.253 12.96 7.752 7.752 0 0 0 1.148 10.911zM95.926 69.332c1.722 0 3.457-.57 4.894-1.742a231.593 231.593 0 0 1 12.817-9.723 7.762 7.762 0 0 0 1.867-10.812 7.762 7.762 0 0 0-10.813-1.868A248.906 248.906 0 0 0 91.02 55.56c-2.41 1.964-3.426 5.277-2.528 8.254.977 3.242 4.051 5.519 7.434 5.519zM281.71 18.035c5.29.785 10.614 1.766 15.825 2.91a7.664 7.664 0 0 0 1.672.184 7.761 7.761 0 0 0 7.57-6.094 7.754 7.754 0 0 0-5.91-9.242 248.188 248.188 0 0 0-16.883-3.105c-4.242-.633-8.183 2.3-8.808 6.539a7.754 7.754 0 0 0 6.535 8.808zM183.95 23.988a7.76 7.76 0 0 0 2.05-.277 231.736 231.736 0 0 1 15.652-3.7 7.755 7.755 0 0 0 6.09-9.124c-.84-4.203-4.926-6.934-9.129-6.09a248.188 248.188 0 0 0-16.707 3.945c-3.656 1-6.113 4.633-5.66 8.403.465 3.847 3.824 6.843 7.703 6.843zM462.836 160.941c2 4.954 3.848 10.043 5.492 15.121 1.36 4.184 6.078 6.418 10.184 4.84 3.789-1.46 5.828-5.765 4.578-9.625a246.244 246.244 0 0 0-5.863-16.136c-1.602-3.977-6.122-5.895-10.098-4.297a7.762 7.762 0 0 0-4.293 10.097zM448.773 132.047c2.274 3.953 7.637 5.082 11.32 2.383 3.145-2.305 4.075-6.746 2.13-10.121a246.46 246.46 0 0 0-9.07-14.567 7.76 7.76 0 1 0-12.879 8.656 230.787 230.787 0 0 1 8.5 13.649zM420.54 93.004c3.046 3.406 8.538 3.394 11.581-.016 2.59-2.906 2.578-7.43-.016-10.328a250.225 250.225 0 0 0-11.875-12.39 7.753 7.753 0 0 0-10.968.144 7.753 7.753 0 0 0 .144 10.969c3.828 3.73 7.574 7.64 11.133 11.62zM328.398 30.04a235.69 235.69 0 0 1 14.887 6.144c4.113 1.87 9.059-.274 10.54-4.528 1.3-3.734-.528-7.968-4.126-9.601a249.197 249.197 0 0 0-15.887-6.555c-4.015-1.492-8.484.547-9.976 4.563a7.754 7.754 0 0 0 4.562 9.976zM371.582 51.488a235.225 235.225 0 0 1 13.29 9.086c3.726 2.746 9.148 1.54 11.386-2.496 1.867-3.363.902-7.723-2.192-10a250.633 250.633 0 0 0-14.175-9.691c-3.618-2.301-8.41-1.227-10.707 2.394a7.762 7.762 0 0 0 2.398 10.707zM30.05 145.512c3.77 1.925 8.516.39 10.438-3.375 2.43-4.75 5.063-9.485 7.828-14.07a7.757 7.757 0 0 0-2.644-10.649c-3.668-2.215-8.438-1.027-10.649 2.64a250.616 250.616 0 0 0-8.347 15.016 7.753 7.753 0 0 0 3.375 10.438zM70.605 398.36c-2.746-3.22-7.722-3.614-10.937-.868-3.215 2.742-3.613 7.719-.871 10.938 3.7 4.332 7.594 8.593 11.582 12.664 3.164 3.234 8.57 3.011 11.484-.442 2.54-3.015 2.356-7.605-.402-10.414a234.87 234.87 0 0 1-10.856-11.879zM118.574 441.012a234.349 234.349 0 0 1-13.07-9.399c-3.395-2.62-8.266-1.996-10.883 1.395a7.757 7.757 0 0 0 1.395 10.883c4.507 3.484 9.199 6.859 13.941 10.023 3.8 2.54 9.102 1.16 11.2-2.887 1.796-3.46.66-7.851-2.583-10.015zM161.238 463.477a231.178 231.178 0 0 1-14.734-6.497c-3.86-1.863-8.496-.242-10.363 3.614a7.757 7.757 0 0 0 3.613 10.36 247.064 247.064 0 0 0 15.726 6.929 7.714 7.714 0 0 0 2.88.558 7.759 7.759 0 0 0 2.879-14.965zM207.621 476.586a230.296 230.296 0 0 1-15.746-3.285 7.76 7.76 0 0 0-9.383 5.691 7.756 7.756 0 0 0 5.688 9.38 246.656 246.656 0 0 0 16.804 3.503c4.223.727 8.344-2.238 8.989-6.469.625-4.125-2.235-8.113-6.352-8.82zM255.719 479.824c-5.317.188-10.781.196-16.102.024-4.308-.176-7.867 3.218-8.008 7.5s3.22 7.867 7.5 8.007c2.73.086 5.512.133 8.262.133 2.965 0 5.957-.05 8.899-.156a7.757 7.757 0 0 0 7.476-8.027c-.148-4.282-3.738-7.606-8.027-7.48zM7.332 241.996c.145.012.29.016.434.016 4.09 0 7.511-3.2 7.738-7.332.297-5.34.781-10.73 1.445-16.024.528-4.25-2.488-8.129-6.738-8.66-4.25-.527-8.129 2.484-8.66 6.738a249.42 249.42 0 0 0-1.54 17.09 7.759 7.759 0 0 0 7.321 8.172zM43.297 358.668a7.753 7.753 0 0 0-10.524-3.102 7.757 7.757 0 0 0-3.101 10.524 247.31 247.31 0 0 0 8.723 14.77c2.425 3.804 7.738 4.71 11.304 1.949 3.125-2.422 3.899-6.965 1.778-10.297a230.572 230.572 0 0 1-8.18-13.844zM13.629 192.578c4.082 1.102 8.41-1.39 9.512-5.473a231.14 231.14 0 0 1 4.726-15.37 7.76 7.76 0 0 0-4.789-9.872c-4.047-1.398-8.469.746-9.871 4.793a246.383 246.383 0 0 0-5.047 16.41 7.758 7.758 0 0 0 5.469 9.512zM11.27 291.664a7.758 7.758 0 0 0 6.507-8.832 236.677 236.677 0 0 1-1.859-15.98c-.348-4.27-4.086-7.438-8.363-7.102a7.757 7.757 0 0 0-7.102 8.363 250.942 250.942 0 0 0 1.984 17.047c.633 4.18 4.649 7.137 8.833 6.504zM29.926 329.457a232.85 232.85 0 0 1-5.133-15.246 7.755 7.755 0 0 0-9.652-5.219 7.757 7.757 0 0 0-5.215 9.653 247.8 247.8 0 0 0 5.476 16.27c1.547 4.12 6.364 6.136 10.395 4.366 3.719-1.633 5.555-6.027 4.129-9.824zM487.48 248.238c-4.296-.164-7.87 3.211-8.015 7.492a237.34 237.34 0 0 1-.406 8c-.286 4.22 2.996 7.98 7.214 8.266 4.215.285 7.98-2.996 8.266-7.215.191-2.824.34-5.695.434-8.527a7.757 7.757 0 0 0-7.493-8.016zm0 0" fill="#8a6b5b" opacity="1" data-original="#000000"/>
    <path d="M438.84 301.285c.601.14 1.203.211 1.797.211a7.765 7.765 0 0 0 7.543-5.969c3.691-15.566 5.562-31.64 5.562-47.78 0-113.794-92.578-206.368-206.367-206.368-20.922 0-41.57 3.121-61.367 9.277a7.76 7.76 0 0 0 4.61 14.817c18.304-5.692 37.398-8.578 56.757-8.578 36.406 0 70.46 10.253 99.438 28.015-14.883 21.543-27.551 38.602-30.41 41.461-5.051 4.57-45.333 19.785-79.758 31.262a7.952 7.952 0 0 0-1.54.707l-41.375 24.828a7.758 7.758 0 0 0-3.535 8.535c.09.356 2.211 8.8 5.434 17.39 3.867 10.317 8.988 20.852 17.715 21.552 2.511 1.953 7.058 10.625 9.93 18.996l8.171 49.035a7.76 7.76 0 0 0 7.653 6.48H305.3a7.757 7.757 0 0 0 7.758-7.758 7.757 7.757 0 0 0-7.758-7.757h-59.63l-7.194-43.168a8.262 8.262 0 0 0-.293-1.18c-3.582-10.738-11.118-28.422-22.282-30.016-2.379-2.644-6.238-11.941-9.152-21.828l35.613-21.367c3.817-1.281 20.453-6.906 37.692-13.258 40.906-15.07 45.21-19.375 47.28-21.445 4.532-4.531 19.24-24.824 32.364-43.824a192.838 192.838 0 0 1 21.426 18.195l-16.078 24.117a7.74 7.74 0 0 0-1.195 3.028l-7.196 43.167h-43.082a7.758 7.758 0 0 0-7.605 6.239l-8.278 41.375a7.774 7.774 0 0 0 1.649 6.488l41.379 49.652a7.74 7.74 0 0 0 3.508 2.395c8.925 2.973 24.98 9.59 30.066 14.676 1.594 1.59 5.687 5.297 22.809 19.039a7.736 7.736 0 0 0 4.851 1.707 7.736 7.736 0 0 0 6.055-2.903 7.758 7.758 0 0 0-1.192-10.906c-16.046-12.879-20.39-16.75-21.55-17.91-8.07-8.07-27.29-15.324-34.016-17.695l-37.613-45.14 6.3-31.5h43.293a7.759 7.759 0 0 0 7.653-6.485l8-48.008 13.137-19.707c28.78 33.43 46.207 76.902 46.207 124.367 0 14.938-1.73 29.809-5.145 44.203a7.758 7.758 0 0 0 5.758 9.336zm0 0" fill="#8a6b5b" opacity="1" data-original="#000000"/>
    <path d="M284.402 443.063c-.625-4.239-4.574-7.172-8.812-6.54a193.053 193.053 0 0 1-28.219 2.07c-46.535 0-89.23-16.75-122.387-44.53l32.82-6.293a7.76 7.76 0 0 0 4.852-3.11l41.38-57.93a7.764 7.764 0 0 0 1.394-5.367l-8.274-74.476a7.731 7.731 0 0 0-.93-2.91l-41.374-74.48a7.778 7.778 0 0 0-2.13-2.438l-33.1-24.825a7.76 7.76 0 0 0-4.657-1.554H89.152c18.09-26.715 43.082-48.887 73.407-63.953a7.757 7.757 0 0 0 3.492-10.403 7.76 7.76 0 0 0-10.399-3.492c-33.894 16.844-62.527 42.684-82.797 74.727-20.835 32.933-31.851 71.035-31.851 110.183 0 113.793 92.578 206.371 206.367 206.371 10.211 0 20.469-.758 30.496-2.242a7.752 7.752 0 0 0 6.535-8.809zM56.523 247.743c0-32.794 8.207-64.083 23.176-91.544h32.68l29.71 22.281 39.817 71.668 7.778 69.98-37.848 52.985-40.117 7.692c-.278.054-.551.125-.817.207-33.625-34.422-54.379-81.461-54.379-133.27zm0 0" fill="#8a6b5b" opacity="1" data-original="#000000"/>
  </g>
</svg>
