<?xml version="1.0" encoding="UTF-8"?>
<svg xmlns="http://www.w3.org/2000/svg" xmlns:xlink="http://www.w3.org/1999/xlink" version="1.1" width="512" height="512" x="0" y="0" viewBox="0 0 512 512" style="enable-background:new 0 0 512 512" xml:space="preserve" class="">
  <g>
    <path fill="#f7f1ed" d="m388.364 503.719-193.95-37.828 87.315-447.683c1.4-7.178 8.354-11.862 15.531-10.462L478.214 43.04c7.178 1.4 11.862 8.354 10.462 15.531l-84.781 434.686c-1.4 7.178-8.353 11.862-15.531 10.462z" opacity="1" data-original="#f6f6f6" class=""/>
    <path fill="#f7f1ed" d="m468.713 41.186-89.85 460.68 9.501 1.853c7.178 1.4 14.132-3.284 15.531-10.462l84.781-434.686c1.4-7.178-3.284-14.132-10.462-15.531z" opacity="1" data-original="#eaeaea" class=""/>
    <path fill="#b881b1" d="m304.635 233.061 68.534 13.33-40.016 205.735-68.534-13.33z" opacity="1" data-original="#365e7d" class=""/>
    <path fill="#dbbda8" d="M306.101 504.499H49.461c-14.572 0-26.385-11.813-26.385-26.385v-303.01c0-14.572 11.813-26.385 26.385-26.385H306.1v355.78z" opacity="1" data-original="#b48e84" class=""/>
    <path fill="#b09578" d="M275.101 148.72h31V504.5h-31z" opacity="1" data-original="#a77d73" class=""/>
    <circle cx="164.589" cy="261.539" r="74.454" fill="#e4f6ff" opacity="1" data-original="#e4f6ff" class=""/>
    <path fill="#f7c6c6" d="M228.934 406.025H100.243a7.635 7.635 0 0 1-7.635-7.635v-27.52a7.635 7.635 0 0 1 7.635-7.635h128.691a7.635 7.635 0 0 1 7.635 7.635v27.52a7.635 7.635 0 0 1-7.635 7.635z" opacity="1" data-original="#9d6b6b" class=""/>
    <path fill="#8a6b5b" d="M228.934 363.235h-21.351a7.635 7.635 0 0 1 7.635 7.635v27.52a7.635 7.635 0 0 1-7.635 7.635h21.351a7.635 7.635 0 0 0 7.635-7.635v-27.52a7.635 7.635 0 0 0-7.635-7.635z" opacity="1" data-original="#8b5e5e" class=""/>
    <path d="M416.65 74.848a7.5 7.5 0 0 0-10.379-2.186l-18.7 12.194-31.838-6.21 26.866-21.677a7.498 7.498 0 0 0 1.127-10.546 7.5 7.5 0 0 0-10.547-1.127l-36.684 29.598-24.42-4.763c-4.064-.795-8.004 1.86-8.797 5.926s1.86 8.004 5.926 8.797l24.42 4.763 22.873 41.215a7.498 7.498 0 0 0 10.197 2.918 7.5 7.5 0 0 0 2.918-10.197L352.86 93.37l31.839 6.21 12.747 18.328a7.489 7.489 0 0 0 6.164 3.218 7.5 7.5 0 0 0 6.15-11.782l-10.071-14.481 14.775-9.635a7.5 7.5 0 0 0 2.186-10.38zM376.813 155.896a7.5 7.5 0 0 0-8.797 5.926l-7.88 40.403a7.5 7.5 0 0 0 14.723 2.871l7.88-40.403a7.5 7.5 0 0 0-5.926-8.797zM401.62 210.315l7.88-40.402a7.5 7.5 0 0 0-14.723-2.871l-7.88 40.402a7.5 7.5 0 0 0 14.723 2.871zM419.583 221.46a7.503 7.503 0 0 0 8.797-5.926l7.88-40.402a7.5 7.5 0 0 0-14.723-2.871l-7.88 40.402a7.502 7.502 0 0 0 5.926 8.797zM364.827 423.937a7.502 7.502 0 0 0 8.797-5.925l24.319-124.688a7.5 7.5 0 0 0-14.723-2.871L358.901 415.14a7.5 7.5 0 0 0 5.926 8.797zM164.588 179.585c-45.189 0-81.953 36.764-81.953 81.954s36.764 81.954 81.953 81.954 81.954-36.765 81.954-81.954-36.764-81.954-81.954-81.954zm0 148.908c-2.273 0-7.246-4.479-11.627-16.816-2.261-6.368-4.029-13.785-5.263-21.874 5.491.353 11.143.54 16.89.54s11.4-.187 16.891-.54c-1.234 8.089-3.002 15.506-5.263 21.874-4.381 12.337-9.354 16.816-11.628 16.816zm0-53.151c-6.318 0-12.533-.238-18.513-.69a202.337 202.337 0 0 1 0-26.226c5.98-.452 12.195-.69 18.513-.69 6.319 0 12.534.238 18.514.69a202.314 202.314 0 0 1 0 26.226c-5.98.452-12.195.69-18.514.69zM97.78 261.539c1.064-1.487 5.938-5.25 18.966-8.596 4.342-1.115 9.121-2.059 14.21-2.829a212.817 212.817 0 0 0 0 22.849c-5.089-.77-9.869-1.714-14.21-2.829-13.03-3.344-17.902-7.108-18.966-8.595zm66.808-66.954c2.273 0 7.247 4.479 11.628 16.817 2.261 6.368 4.029 13.785 5.263 21.874a264.447 264.447 0 0 0-33.781 0c1.234-8.089 3.002-15.506 5.263-21.874 4.381-12.338 9.354-16.817 11.627-16.817zm33.634 55.529c5.089.77 9.869 1.714 14.21 2.829 13.028 3.345 17.901 7.108 18.966 8.596-1.064 1.487-5.938 5.251-18.966 8.596-4.341 1.115-9.121 2.059-14.21 2.829a212.854 212.854 0 0 0 0-22.85zm30.555-7.587c-2.828-1.173-5.982-2.262-9.479-3.263-6.643-1.901-14.253-3.412-22.489-4.502-1.826-13.834-5.097-26.559-9.769-36.293 20.017 7.148 35.656 23.564 41.737 44.058zm-86.64-44.057c-4.672 9.734-7.942 22.459-9.768 36.293-8.236 1.091-15.846 2.602-22.489 4.502-3.497 1-6.651 2.09-9.479 3.263 6.081-20.495 21.719-36.911 41.736-44.058zm-41.736 82.08c2.828 1.173 5.982 2.262 9.479 3.263 6.643 1.901 14.253 3.412 22.489 4.503 1.826 13.834 5.096 26.559 9.768 36.293-20.017-7.148-35.655-23.564-41.736-44.059zm86.639 44.058c4.672-9.734 7.943-22.459 9.769-36.293 8.236-1.09 15.846-2.602 22.489-4.503 3.497-1 6.651-2.09 9.479-3.263-6.081 20.496-21.72 36.912-41.737 44.059zM244.069 398.389v-27.52c0-8.346-6.789-15.135-15.135-15.135h-128.69c-8.346 0-15.135 6.789-15.135 15.135v27.52c0 8.346 6.789 15.135 15.135 15.135h128.69c8.346 0 15.135-6.789 15.135-15.135zm-143.96 0v-27.52c0-.074.061-.135.135-.135h128.69c.074 0 .135.061.135.135v27.52a.136.136 0 0 1-.135.135h-128.69a.134.134 0 0 1-.135-.135zM224.788 437.909c0-4.143-3.357-7.5-7.5-7.5H111.89c-4.143 0-7.5 3.357-7.5 7.5s3.357 7.5 7.5 7.5h105.397a7.5 7.5 0 0 0 7.501-7.5zM141.89 462.293c-4.143 0-7.5 3.357-7.5 7.5s3.357 7.5 7.5 7.5h45.397c4.143 0 7.5-3.357 7.5-7.5s-3.357-7.5-7.5-7.5z" fill="#191918" opacity="1" data-original="#000000" class=""/>
    <path d="m479.65 35.678-20.035-3.908a7.5 7.5 0 0 0-2.871 14.723l20.035 3.908a5.748 5.748 0 0 1 4.536 6.734l-84.781 434.686a5.754 5.754 0 0 1-6.734 4.537l-76.198-14.862v-25.538l17.748 3.462a7.497 7.497 0 0 0 8.797-5.925L370.064 300.1a7.5 7.5 0 0 0-14.723-2.871l-28.482 146.032-13.258-2.586V242.503l50.493 9.848-3.006 15.414a7.5 7.5 0 0 0 14.723 2.872l4.441-22.775a7.5 7.5 0 0 0-5.926-8.797L313.6 227.221V148.72a7.5 7.5 0 0 0-7.5-7.5h-40.723L289.09 19.645c.606-3.106 3.621-5.147 6.734-4.537L427.31 40.753a7.493 7.493 0 0 0 8.797-5.926 7.5 7.5 0 0 0-5.926-8.797L298.696.385c-11.219-2.188-22.138 5.162-24.328 16.388L250.095 141.22H49.461c-18.685 0-33.885 15.201-33.885 33.885v247.81c0 4.143 3.357 7.5 7.5 7.5s7.5-3.357 7.5-7.5v-247.81c0-10.413 8.472-18.885 18.885-18.885h249.14V497H49.461c-10.413 0-18.885-8.472-18.885-18.886v-25.212c0-4.143-3.357-7.5-7.5-7.5s-7.5 3.357-7.5 7.5v25.212c0 18.685 15.2 33.886 33.885 33.886h256.64c4.143 0 7.5-3.357 7.5-7.5v-7.721l73.327 14.302a20.71 20.71 0 0 0 3.977.386c9.72 0 18.422-6.884 20.352-16.773l84.781-434.687c2.188-11.226-5.164-22.14-16.388-24.329z" fill="#191918" opacity="1" data-original="#000000" class=""/>
  </g>
</svg>
