<?xml version="1.0" encoding="UTF-8"?>
<svg xmlns="http://www.w3.org/2000/svg" xmlns:xlink="http://www.w3.org/1999/xlink" version="1.1" width="512" height="512" x="0" y="0" viewBox="0 0 505.021 505.021" style="enable-background:new 0 0 512 512" xml:space="preserve" class="">
  <g>
    <path fill="#f7f1ed" d="M445.004 319.625a39.15 39.15 0 0 0-.2 3.871c0 20.3 16.471 36.771 36.771 36.771.294 0 .588-.01.871-.021v43.591c0 19.293-15.632 34.935-34.925 34.935H54.934c-19.293 0-34.935-15.642-34.935-34.935v-43.591a36.856 36.856 0 0 0 9.62-1.511c15.202-4.522 26.28-18.58 26.28-35.24a36.553 36.553 0 0 0-8.729-23.773.442.442 0 0 0-.094-.105c-6.557-7.68-16.24-12.621-27.078-12.873v-37.81c0-19.293 15.642-34.935 34.935-34.935h392.588c19.293 0 34.925 15.642 34.925 34.935v37.81c-.283-.01-.577-.021-.871-.021-18.988.002-34.63 14.406-36.571 32.902z" opacity="1" data-original="#0067c5"/>
    <path fill="#f5e2d7" d="M482.447 248.936v37.81c-.283-.01-.577-.021-.871-.021-18.989 0-34.631 14.404-36.572 32.9L84.582 423.372c-18.548 5.34-37.894-5.371-43.234-23.909l-11.729-40.727c15.202-4.522 26.28-18.58 26.28-35.24a36.553 36.553 0 0 0-8.729-23.773.442.442 0 0 0-.094-.105c-6.557-7.68-16.24-12.621-27.078-12.873v-37.81C19.998 229.642 35.64 214 54.933 214h392.588c19.294.001 34.926 15.643 34.926 34.936z" opacity="1" data-original="#0055a3" class=""/>
    <path fill="#b09578" d="M437.741 173.605c5.616 19.512 25.994 30.781 45.506 25.165.279-.08.555-.171.831-.262l12.06 41.898c5.337 18.541-5.365 37.894-23.906 43.23L94.961 392.227c-18.541 5.337-37.894-5.365-43.23-23.906l-12.06-41.898c19.002-5.951 29.87-26.011 24.334-45.245S38.6 250.731 19.342 255.793L8.883 219.455c-5.337-18.541 5.365-37.894 23.906-43.23L410.06 67.634c18.541-5.337 37.894 5.365 43.23 23.906l10.459 36.338c-.282.07-.564.14-.843.22-19.512 5.617-30.781 25.995-25.165 45.507z" opacity="1" data-original="#d3e1f5" class=""/>
    <path fill="#dbbda8" d="M452.954 90.475c-5.761-17.879-24.713-28.073-42.894-22.84L32.789 176.224c-17.844 5.136-28.421 23.255-24.433 41.138z" opacity="1" data-original="#b3ceec" class=""/>
    <path fill="#dbbda8" d="m290.669 101.999 62.172 216.003-257.88 74.226c-18.541 5.337-37.894-5.365-43.23-23.906l-12.06-41.898c19.002-5.951 29.87-26.011 24.334-45.245S38.6 250.732 19.342 255.794L8.883 219.455c-5.337-18.541 5.365-37.894 23.906-43.23z" opacity="1" data-original="#b3ceec" class=""/>
    <path fill="#8a6b5b" d="m290.669 101.999-257.88 74.226c-11.259 3.258-21.18 12.614-24.141 24.765a34.741 34.741 0 0 0-.294 16.363l.002.01 291.567-83.213z" opacity="1" data-original="#98bce5" class=""/>
    <g fill="#d3e1f5">
      <path d="m185.497 257.613-3.714 64.859 22.737-6.544 17.447-67.693zM180.142 239.01l-37.626-52.961 22.737-6.544 50.764 48.06z" fill="#b09578" opacity="1" data-original="#d3e1f5" class=""/>
      <path d="M109.566 258.204s112.934-39.221 126.37-43.088 28.53 9.694 28.53 9.694-5.575 19.511-19.011 23.378-129.94 30.686-129.94 30.686l-13.972 4.793-18.981-32.475z" fill="#b09578" opacity="1" data-original="#d3e1f5" class=""/>
    </g>
    <path fill="#b881b1" d="m331.32 122.399 75.448-21.747 8.404 29.157-75.447 21.747z" opacity="1" data-original="#60b7ff" class=""/>
    <path fill="#f7c6c6" d="m260.114 283.069 41.342-11.917 16.385 56.844-41.342 11.917z" opacity="1" data-original="#fee903" class=""/>
    <path fill="#f5e2d7" d="M350.172 378.543h82.811v29.038h-82.811z" opacity="1" data-original="#ffefd2" class=""/>
    <path d="m503.346 238.332-12.06-41.898c-.963-3.136-5.074-6.762-10.112-4.871-15.513 4.466-31.761-4.522-36.226-20.032-4.464-15.51 4.522-31.76 20.037-36.226 3.304-.73 7.26-4.162 5.972-9.501l-10.46-36.338c-3.135-10.893-10.322-19.912-20.24-25.396-9.918-5.485-21.378-6.777-32.271-3.644L30.715 169.017c-10.893 3.135-19.912 10.324-25.396 20.241-5.484 9.918-6.778 21.378-3.643 32.271l10.459 36.338c.099.343.228.669.369.986v27.888a7.5 7.5 0 0 0 7.326 7.498c12.392.288 23.202 8.468 27.057 19.966a28.777 28.777 0 0 1-9.456 5.06 7.499 7.499 0 0 0-4.966 9.232l5.098 17.713c-5.008 4.083-11.173 6.378-17.733 6.53a7.5 7.5 0 0 0-7.326 7.498v43.6c0 23.396 19.035 42.431 42.432 42.431H149.9c4.143 0 7.5-3.358 7.5-7.5s-3.357-7.5-7.5-7.5H54.935c-15.126 0-27.432-12.306-27.432-27.431v-36.874a43.663 43.663 0 0 0 14.442-5.523l2.578 8.954c3.135 10.893 10.322 19.912 20.24 25.396 8.964 4.677 19.948 7.271 32.271 3.643l347.392-99.989a44.01 44.01 0 0 0-7.114 24.044c0 22.158 16.364 40.566 37.642 43.775v36.573c0 15.125-12.306 27.431-27.431 27.431H185.851c-4.143 0-7.5 3.358-7.5 7.5s3.357 7.5 7.5 7.5h261.672c23.396 0 42.431-19.035 42.431-42.431v-43.6c-.062-3.279-3-7.904-8.371-7.479-16.14 0-29.271-13.13-29.271-29.27s13.131-29.27 29.271-29.27c3.379.218 8.131-1.993 8.371-7.479v-4.246a42.4 42.4 0 0 0 9.749-11.892c5.484-9.916 6.778-21.376 3.643-32.269zM27.504 280.033v-17.906c19.813-.744 34.995 18.877 29.083 37.813-6.47-10.221-16.992-17.561-29.083-19.907zm241.779 8.271 26.926-7.75 12.211 42.428-26.925 7.75zm217.293-24.96c-3.686 6.667-9.438 10.668-16.418 13.085l-112.184 32.29c-2.308-13.846-19.755-8.374-14.414 4.149l-20.725 5.965-14.286-49.635a7.5 7.5 0 0 0-9.281-5.133l-41.341 11.899a7.499 7.499 0 0 0-5.133 9.282l14.287 49.635-174.194 50.138c-7.044 2.028-14.452 1.191-20.863-2.354s-11.058-9.376-13.085-16.419l-10.2-35.438c18.009-9.116 27.757-30.226 22.923-49.879-5.321-21.631-25.234-34.887-46.972-33.671l-8.6-29.878c-2.026-7.042-1.19-14.451 2.355-20.862 3.545-6.412 9.376-11.059 16.418-13.085l250.674-72.152.83 2.884a7.503 7.503 0 0 0 7.203 5.427 7.5 7.5 0 0 0 7.211-9.577l-.83-2.882 112.183-32.29c7.043-2.027 14.451-1.191 20.863 2.355 6.411 3.545 11.058 9.376 13.085 16.418l8.516 29.586c-19.56 8.969-30.193 31.185-24.064 52.479 6.129 21.292 26.932 34.46 48.281 31.655l10.116 35.146c2.027 7.041 1.191 14.451-2.355 20.862z" fill="#000000" opacity="1" data-original="#000000" class=""/>
    <path d="m316.248 163.752-5.505-19.126a7.5 7.5 0 0 0-14.414 4.149l5.505 19.126c2.256 8.546 16.505 5.982 14.414-4.149zM331.716 217.489l-5.506-19.126a7.505 7.505 0 0 0-9.282-5.133 7.5 7.5 0 0 0-5.132 9.282l5.506 19.126c2.257 8.546 16.506 5.982 14.414-4.149zM341.678 252.1a7.5 7.5 0 0 0-14.414 4.149l5.505 19.127c2.257 8.546 16.505 5.983 14.414-4.148zM421.674 133.601a7.499 7.499 0 0 0 .644-5.704l-8.393-29.157a7.503 7.503 0 0 0-9.281-5.133l-75.445 21.715a7.5 7.5 0 0 0-5.133 9.282l8.392 29.157a7.5 7.5 0 0 0 9.281 5.134l75.446-21.716a7.509 7.509 0 0 0 4.489-3.578zm-76.877 8.804-4.243-14.743 61.031-17.566 4.243 14.742zM409.867 247.84l40.307-11.602a7.5 7.5 0 0 0-4.148-14.415l-40.307 11.602a7.5 7.5 0 0 0 4.148 14.415zM453.462 247.662l-40.307 11.601a7.5 7.5 0 0 0 4.148 14.416l40.307-11.601a7.5 7.5 0 0 0 5.133-9.282c-1.147-3.984-5.309-6.28-9.281-5.134zM143.536 325.676l-56.843 16.361a7.5 7.5 0 0 0 4.148 14.415l56.843-16.361a7.5 7.5 0 0 0-4.148-14.415zM432.982 415.081a7.5 7.5 0 0 0 7.5-7.5v-29.038a7.5 7.5 0 0 0-7.5-7.5h-82.811a7.5 7.5 0 0 0-7.5 7.5v29.038a7.5 7.5 0 0 0 7.5 7.5zm-75.31-29.038h67.811v14.038h-67.811zM313.449 399.059c4.143 0 7.5-3.358 7.5-7.5s-3.357-7.5-7.5-7.5h-79.732c-4.143 0-7.5 3.358-7.5 7.5s3.357 7.5 7.5 7.5zM233.862 207.909c-2.964.853-10.535 3.345-20.59 6.729l-42.863-40.579a7.5 7.5 0 0 0-7.23-1.761l-22.736 6.544c-3.599 1.115-7.312 6.009-4.04 11.551l28.863 40.627a23164.583 23164.583 0 0 0-56.013 19.355l-24.805-6.44c-5.134-1.43-11.746 4.338-8.36 11.044l18.98 32.475c2.316 2.337 3.624 4.577 8.909 3.31l13.602-4.667c4.106-.946 31.109-7.167 59.565-13.807l-2.848 49.755c.599 3.616 1.617 8.75 9.562 7.636l22.737-6.544a7.5 7.5 0 0 0 5.188-5.335l14.731-57.157c10.311-2.478 18.052-4.394 21.015-5.246 16.942-4.876 23.461-26.119 24.148-28.525a7.501 7.501 0 0 0-2.198-7.64c-1.862-1.675-18.687-16.199-35.617-11.325zm-79.104-17.579 8.451-2.432 33.995 32.184a8732.334 8732.334 0 0 0-17.146 5.859zm43.569 119.576-8.451 2.433 2.496-43.611a9746.01 9746.01 0 0 0 17.639-4.153zm45.054-68.925c-3.196.92-12.493 3.2-24.726 6.122l-.021.003a5933.543 5933.543 0 0 1-17.384 4.123l-1.208.285-.646.152c-37.498 8.831-84.82 19.728-85.563 19.899-.254.059-.505.13-.751.215l-8.162 2.8-6.776-11.593 9.538 2.477a7.497 7.497 0 0 0 4.346-.174c.719-.25 46.51-16.148 82.948-28.598l3.341-1.141.198-.068c5.659-1.93 10.767-3.666 15.281-5.192l.013-.005c11.917-4.029 21.006-7.042 24.203-7.962 5.574-1.606 12.789 1.964 17.487 5.085-2.303 5.133-6.494 11.954-12.118 13.572z" fill="#000000" opacity="1" data-original="#000000" class=""/>
  </g>
</svg>
