<?xml version="1.0" encoding="UTF-8"?>
<svg xmlns="http://www.w3.org/2000/svg" xmlns:xlink="http://www.w3.org/1999/xlink" version="1.1" width="512" height="512" x="0" y="0" viewBox="0 0 511.262 511.262" style="enable-background:new 0 0 512 512" xml:space="preserve" class="">
  <g>
    <path d="M381.223 54.933h-.013c-24.245-10.343-50.907-16.065-78.926-16.065-51.914 0-99.235 19.638-134.951 51.888v244.89l95.097 102.237a202.31 202.31 0 0 0 39.853 3.944c41.115 0 79.356-12.317 111.23-33.472l38.565-146.951-70.855-206.471z" style="" fill="#f7c6c6" data-original="#a4d7f5" class="" opacity="1"/>
    <path d="M262.431 391.9v45.978c-92.184-18.496-161.627-99.907-161.627-197.53 0-59.356 25.668-112.721 66.528-149.592l79.208 43.479 5.373 96.225-49.101 67.874 54.254 12.46 5.365 81.106zM381.223 54.933h-.013l-63.6 33.861 4.15 49.819 53.056 30.545-15.447 85.964 44.325 9.194 16.79 58.219-46.34 57.491 41.12 27.153c53.403-36.235 88.498-97.433 88.498-166.832.001-83.251-50.503-154.722-122.539-185.414z" style="" fill="#dbbda8" data-original="#9ce3bf" class="" opacity="1"/>
    <path d="M127.148 339.998c-16.247-28.459-25.725-61.25-26.305-96.207.761 33.642 9.851 66.858 26.305 96.207z" style="" fill="#dbbda8" data-original="#9ce3bf" class="" opacity="1"/>
    <path d="M159.565 98.132c-36.491 36.655-58.761 86.978-58.761 142.215-1.565-46.915 17.935-101.519 58.761-142.215zM251.195 435.289c-54.686-14.068-96.285-48.226-121.7-91.269a228.87 228.87 0 0 0 2.605 4.217c28.105 43.995 70.884 74.457 119.095 87.052z" style="" fill="#8a6b5b" data-original="#52cd8d" class="" opacity="1"/>
    <path d="M262.426 428.687v9.194C100.1 406.001 44.972 200.982 167.328 90.756l20.619 11.322c-99.602 104.591-57.134 277.427 74.479 326.609z" style="" fill="#8a6b5b" data-original="#52cd8d" class="" opacity="1"/>
    <path d="M318.466 39.513c-48.724 3.862-95.017 25.194-130.52 62.565l-20.619-11.322c20.88-18.721 43.431-31.863 67.761-40.386h.013c25.59-9.053 54.022-13.183 83.365-10.857z" style="" fill="#f7f1ed" data-original="#83c8f1" class="" opacity="1"/>
    <path d="m489.622 256.14-134.7 58.194-59.511 138.978-35.475 15.326-3.667-111.683-123.646 53.419c-13.537 5.848-29.251-.384-35.099-13.921l-40.802-94.444 36.684-15.849 52.261 26.961 239.495-103.469a112.888 112.888 0 0 1 107.843 10.009c13.687 9.224 11.766 29.934-3.383 36.479z" style="" fill="#b881b1" data-original="#e5ecf5" class="" opacity="1"/>
    <path d="m313.84 240.552-134.352-55.566-35.478 15.328 79.051 79.458" style="" fill="#b881b1" data-original="#e5ecf5" class="" opacity="1"/>
    <path d="m249.137 268.502-26.079 11.267-.063-.059-78.991-79.4 26.08-11.267 78.99 79.4zM158.698 399.103l-26.079 11.267c-13.53 5.845-29.241-.377-35.091-13.918l-40.805-94.449 26.079-11.267 40.805 94.449c5.851 13.541 21.561 19.763 35.091 13.918zM256.266 356.951l26.079-11.267 3.677 111.689-26.079 11.267z" style="" fill="#f7f1ed" data-original="#cad8eb" class="" opacity="1"/>
    <path d="m249.074 268.443.063.059-26.079 11.267-.063-.059z" style="" fill="#f7f1ed" data-original="#cad8eb" class="" opacity="1"/>
    <path d="m249.074 268.443.063.059-26.079 11.267-.063-.059z" style="" fill="#f7f1ed" data-original="#cad8eb" class="" opacity="1"/>
    <path d="m103.622 210.069-.6.3c-63.85 32.24-102.01 68.46-94.61 95.94 4.874 18.105 28.733 28.883 64.855 32.598" style="stroke-width:15;stroke-miterlimit:10;" fill="none" stroke="#191918" stroke-width="15" stroke-miterlimit="10" data-original="#000000" opacity="1" class=""/>
    <path d="M403.115 117.271v-15.208M418.259 146.482v-15.208" style="stroke-width:15;stroke-miterlimit:10;stroke-dasharray:15,15;" fill="none" stroke="#b881b1" stroke-width="15" stroke-miterlimit="10" stroke-dasharray="15,15" data-original="#ffffff" opacity="1"/>
    <path d="m256.852 356.889 2.64 80.43c-33.05-7.14-63.08-22.4-87.91-43.59l85.27-36.84z" style="stroke-width:15;stroke-miterlimit:10;" fill="none" stroke="#191918" stroke-width="15" stroke-miterlimit="10" data-original="#000000" opacity="1" class=""/>
    <path d="M503.762 240.409c0 69.4-35.09 130.6-88.5 166.84l-1.23-.82-.52 1.99c-31.87 21.16-70.11 33.47-111.23 33.47-.47 0-.95 0-1.42-.01l54.64-127.61 134.7-58.19c15.15-6.55 17.07-27.26 3.38-36.48-31.89-21.49-72.53-25.26-107.84-10.01l-239.49 103.47-38.45-19.83c-4.57-16.83-7-34.54-7-52.82 0-29.67 6.42-57.85 17.94-83.23 11.53-25.36 28.16-47.92 48.59-66.36 35.72-32.25 83.04-51.89 134.95-51.89 28.02 0 54.68 5.73 78.93 16.07h.01c72.04 30.69 122.54 102.16 122.54 185.41z" style="stroke-width:15;stroke-miterlimit:10;" fill="none" stroke="#191918" stroke-width="15" stroke-miterlimit="10" data-original="#000000" opacity="1" class=""/>
    <path d="m249.132 180.731 1.87 33.528M167.332 90.819l79.21 43.48 1.615 28.954" style="stroke-width:15;stroke-miterlimit:10;stroke-dasharray:120,15;" fill="none" stroke="#191918" stroke-width="15" stroke-miterlimit="10" stroke-dasharray="120,15" data-original="#000000" opacity="1" class=""/>
    <path d="m415.262 407.249-1.23-.81v-.01l-39.89-26.34 46.34-57.49-9.33-32.37M366.032 218.109l8.78-48.89-53.05-30.54-4.15-49.82 63.6-33.86h.01" style="stroke-width:15;stroke-miterlimit:10;stroke-dasharray:410,15;" fill="none" stroke="#191918" stroke-width="15" stroke-miterlimit="10" stroke-dasharray="410,15" data-original="#000000" opacity="1" class=""/>
    <path d="m314.42 240.49-134.352-55.566-35.479 15.327 79.051 79.458" style="stroke-width:15;stroke-miterlimit:10;stroke-dasharray:660,15,15,15;" fill="none" stroke="#191918" stroke-width="15" stroke-miterlimit="10" stroke-dasharray="660,15,15,15" data-original="#000000" opacity="1" class=""/>
    <path d="m107.802 293.229-13.82-7.13-36.68 15.85 40.8 94.44c5.85 13.54 21.56 19.77 35.1 13.92l38.38-16.58M300.862 441.879l-4.87 11.37-35.48 15.33-1.02-31.26" style="stroke-width:15;stroke-miterlimit:10;stroke-dasharray:618,15,15,15;" fill="none" stroke="#191918" stroke-width="15" stroke-miterlimit="10" stroke-dasharray="618,15,15,15" data-original="#000000" opacity="1" class=""/>
    <path d="m394.8 251.356-13.286 5.74M422.403 239.431l-7.91 3.417-5.651 2.441M482.971 213.264l-46.585 20.126" style="stroke-width:15;stroke-miterlimit:10;stroke-dasharray:51,15,15,15;" fill="none" stroke="#191918" stroke-width="15" stroke-miterlimit="10" stroke-dasharray="51,15,15,15" data-original="#000000" opacity="1" class=""/>
    <path d="m341.874 274.222-152.129 65.724" style="stroke-width:15;stroke-miterlimit:10;stroke-dasharray:15,15,15,15;" fill="none" stroke="#191918" stroke-width="15" stroke-miterlimit="10" stroke-dasharray="15,15,15,15" data-original="#000000" opacity="1" class=""/>
  </g>
</svg>
