<svg width="21" height="16" viewBox="0 0 21 16" fill="none" xmlns="http://www.w3.org/2000/svg">
<g clip-path="url(#clip0_1_646)">
<path d="M3.32812 4C3.32812 2.93913 3.74955 1.92172 4.4997 1.17157C5.24984 0.421427 6.26726 0 7.32812 0C8.38899 0 9.40641 0.421427 10.1566 1.17157C10.9067 1.92172 11.3281 2.93913 11.3281 4C11.3281 5.06087 10.9067 6.07828 10.1566 6.82843C9.40641 7.57857 8.38899 8 7.32812 8C6.26726 8 5.24984 7.57857 4.4997 6.82843C3.74955 6.07828 3.32813 5.06087 3.32812 4ZM0.328125 15.0719C0.328125 11.9937 2.82188 9.5 5.9 9.5H8.75625C11.8344 9.5 14.3281 11.9937 14.3281 15.0719C14.3281 15.5844 13.9125 16 13.4 16H1.25625C0.74375 16 0.328125 15.5844 0.328125 15.0719ZM16.0781 9.75V7.75H14.0781C13.6625 7.75 13.3281 7.41563 13.3281 7C13.3281 6.58437 13.6625 6.25 14.0781 6.25H16.0781V4.25C16.0781 3.83437 16.4125 3.5 16.8281 3.5C17.2438 3.5 17.5781 3.83437 17.5781 4.25V6.25H19.5781C19.9938 6.25 20.3281 6.58437 20.3281 7C20.3281 7.41563 19.9938 7.75 19.5781 7.75H17.5781V9.75C17.5781 10.1656 17.2438 10.5 16.8281 10.5C16.4125 10.5 16.0781 10.1656 16.0781 9.75Z" fill="#B09578"/>
</g>
<defs>
<clipPath id="clip0_1_646">
<path d="M0.328125 0H20.3281V16H0.328125V0Z" fill="white"/>
</clipPath>
</defs>
</svg>
