<svg width="14" height="15" viewBox="0 0 14 15" fill="none" xmlns="http://www.w3.org/2000/svg">
<path d="M2.625 3.375C2.625 2.40977 3.40977 1.625 4.375 1.625H12.25C13.2152 1.625 14 2.40977 14 3.375V12.125C14 13.0902 13.2152 13.875 12.25 13.875H2.1875C0.978906 13.875 0 12.8961 0 11.6875V4.25C0 3.76602 0.391016 3.375 0.875 3.375C1.35898 3.375 1.75 3.76602 1.75 4.25V11.6875C1.75 11.9281 1.94687 12.125 2.1875 12.125C2.42813 12.125 2.625 11.9281 2.625 11.6875V3.375ZM4.375 4.03125V6.21875C4.375 6.58242 4.66758 6.875 5.03125 6.875H8.09375C8.45742 6.875 8.75 6.58242 8.75 6.21875V4.03125C8.75 3.66758 8.45742 3.375 8.09375 3.375H5.03125C4.66758 3.375 4.375 3.66758 4.375 4.03125ZM10.0625 3.8125C10.0625 4.05313 10.2594 4.25 10.5 4.25H11.8125C12.0531 4.25 12.25 4.05313 12.25 3.8125C12.25 3.57187 12.0531 3.375 11.8125 3.375H10.5C10.2594 3.375 10.0625 3.57187 10.0625 3.8125ZM10.0625 6.4375C10.0625 6.67813 10.2594 6.875 10.5 6.875H11.8125C12.0531 6.875 12.25 6.67813 12.25 6.4375C12.25 6.19687 12.0531 6 11.8125 6H10.5C10.2594 6 10.0625 6.19687 10.0625 6.4375ZM4.375 9.0625C4.375 9.30313 4.57187 9.5 4.8125 9.5H11.8125C12.0531 9.5 12.25 9.30313 12.25 9.0625C12.25 8.82187 12.0531 8.625 11.8125 8.625H4.8125C4.57187 8.625 4.375 8.82187 4.375 9.0625ZM4.375 11.6875C4.375 11.9281 4.57187 12.125 4.8125 12.125H11.8125C12.0531 12.125 12.25 11.9281 12.25 11.6875C12.25 11.4469 12.0531 11.25 11.8125 11.25H4.8125C4.57187 11.25 4.375 11.4469 4.375 11.6875Z" fill="currentColor"/>
</svg>
