<svg width="14" height="15" viewBox="0 0 14 15" fill="none" xmlns="http://www.w3.org/2000/svg">
<g clip-path="url(#clip0_1_364)">
<path d="M0 7.75C0 5.89348 0.737498 4.11301 2.05025 2.80025C3.36301 1.4875 5.14348 0.75 7 0.75C8.85652 0.75 10.637 1.4875 11.9497 2.80025C13.2625 4.11301 14 5.89348 14 7.75C14 9.60652 13.2625 11.387 11.9497 12.6997C10.637 14.0125 8.85652 14.75 7 14.75C5.14348 14.75 3.36301 14.0125 2.05025 12.6997C0.737498 11.387 0 9.60652 0 7.75ZM7.875 3.375C7.875 3.14294 7.78281 2.92038 7.61872 2.75628C7.45462 2.59219 7.23206 2.5 7 2.5C6.76794 2.5 6.54538 2.59219 6.38128 2.75628C6.21719 2.92038 6.125 3.14294 6.125 3.375C6.125 3.60706 6.21719 3.82962 6.38128 3.99372C6.54538 4.15781 6.76794 4.25 7 4.25C7.23206 4.25 7.45462 4.15781 7.61872 3.99372C7.78281 3.82962 7.875 3.60706 7.875 3.375ZM7 12.125C7.96523 12.125 8.75 11.3402 8.75 10.375C8.75 9.89922 8.56133 9.46992 8.25508 9.15547L10.0078 5.17148C10.1527 4.84062 10.0023 4.45234 9.67148 4.30742C9.34063 4.1625 8.95234 4.31289 8.80742 4.64375L7.05195 8.625C7.03555 8.625 7.01641 8.625 7 8.625C6.03477 8.625 5.25 9.40977 5.25 10.375C5.25 11.3402 6.03477 12.125 7 12.125ZM4.8125 4.6875C4.8125 4.45544 4.72031 4.23288 4.55622 4.06878C4.39212 3.90469 4.16956 3.8125 3.9375 3.8125C3.70544 3.8125 3.48288 3.90469 3.31878 4.06878C3.15469 4.23288 3.0625 4.45544 3.0625 4.6875C3.0625 4.91956 3.15469 5.14212 3.31878 5.30622C3.48288 5.47031 3.70544 5.5625 3.9375 5.5625C4.16956 5.5625 4.39212 5.47031 4.55622 5.30622C4.72031 5.14212 4.8125 4.91956 4.8125 4.6875ZM2.625 8.625C2.85706 8.625 3.07962 8.53281 3.24372 8.36872C3.40781 8.20462 3.5 7.98206 3.5 7.75C3.5 7.51794 3.40781 7.29538 3.24372 7.13128C3.07962 6.96719 2.85706 6.875 2.625 6.875C2.39294 6.875 2.17038 6.96719 2.00628 7.13128C1.84219 7.29538 1.75 7.51794 1.75 7.75C1.75 7.98206 1.84219 8.20462 2.00628 8.36872C2.17038 8.53281 2.39294 8.625 2.625 8.625ZM12.25 7.75C12.25 7.51794 12.1578 7.29538 11.9937 7.13128C11.8296 6.96719 11.6071 6.875 11.375 6.875C11.1429 6.875 10.9204 6.96719 10.7563 7.13128C10.5922 7.29538 10.5 7.51794 10.5 7.75C10.5 7.98206 10.5922 8.20462 10.7563 8.36872C10.9204 8.53281 11.1429 8.625 11.375 8.625C11.6071 8.625 11.8296 8.53281 11.9937 8.36872C12.1578 8.20462 12.25 7.98206 12.25 7.75Z" fill="currentColor"/>
</g>
<defs>
<clipPath id="clip0_1_364">
<path d="M0 0.75H14V14.75H0V0.75Z" fill="white"/>
</clipPath>
</defs>
</svg>
