<svg id="fi_6350112" enable-background="new 0 0 512 512" height="512" viewBox="0 0 512 512" width="512" xmlns="http://www.w3.org/2000/svg"><g><path d="m216.546 357.449-27.312-47.306-67.389 38.907 27.312 47.305zm-32.802-26.815 12.312 21.325-41.409 23.907-12.312-21.325z"></path><path d="m157.357 458.154 52.762 14.138 14.138-52.762-52.762-14.138zm24.744-34.391 23.785 6.373-6.373 23.785-23.785-6.373z"></path><path d="m486.97 138.63h-65.388v-93.86c10.9-1.555 19.31-10.947 19.31-22.27 0-12.407-10.094-22.5-22.5-22.5h-81.952c-12.406 0-22.5 10.093-22.5 22.5 0 11.323 8.409 20.715 19.31 22.27v93.86h-37.426v15h191.146c5.53 0 10.03 4.5 10.03 10.03v283.45c0 5.531-4.5 10.03-10.03 10.03h-14.12v-176.81h-15v176.81h-110.688v-163.145c0-12.407-10.094-22.5-22.5-22.5h-27.682v-66.095h160.87v29.93h15v-32.43c0-6.893-5.607-12.5-12.5-12.5h-165.87c-6.893 0-12.5 5.607-12.5 12.5v68.595h-24.149v-40.495c0-.013-.001-.026-.001-.039v-67.301c0-5.531 4.5-10.03 10.03-10.03h12.963v-15h-12.963c-13.802 0-25.03 11.229-25.03 25.03v39.975c-5.056-3.244-11.059-5.135-17.499-5.135h-103.5c-17.92 0-32.5 14.58-32.5 32.5v40.495h-39.125-27.706c-12.407 0-22.5 10.093-22.5 22.5v195.505c0 12.407 10.093 22.5 22.5 22.5h274.456 27.706c12.406 0 22.5-10.093 22.5-22.5v-17.36h74.338v14.193c0 14.152 11.514 25.667 25.667 25.667 14.152 0 25.666-11.514 25.666-25.667v-14.193h.017 14.12c13.802 0 25.03-11.229 25.03-25.03v-283.45c0-13.802-11.229-25.03-25.03-25.03zm-80.388 0h-58.333v-93.63h58.333zm-70.143-108.63c-4.136 0-7.5-3.364-7.5-7.5s3.364-7.5 7.5-7.5h81.952c4.136 0 7.5 3.364 7.5 7.5s-3.364 7.5-7.5 7.5zm-286.233 467h-27.706c-4.136 0-7.5-3.364-7.5-7.5v-195.505c0-4.136 3.364-7.5 7.5-7.5h27.706zm54.125-266c0-9.649 7.851-17.5 17.5-17.5h103.5c9.643 0 17.488 7.84 17.499 17.481v40.514h-14.999v-30.495c0-6.893-5.607-12.5-12.5-12.5h-83.5c-6.893 0-12.5 5.607-12.5 12.5v30.495h-15zm108.5 12.5v27.995h-78.5v-27.995zm30 253.5h-138.5v-56.762h-15v56.762h-24.125v-210.505h24.125v138.744h15v-138.744h138.5zm39.125 0h-24.125v-210.505h24.125zm50.206-7.5c0 4.136-3.364 7.5-7.5 7.5h-27.706v-210.505h27.706c4.136 0 7.5 3.364 7.5 7.5zm125.671-3.167c0 5.881-4.785 10.667-10.666 10.667-5.882 0-10.667-4.785-10.667-10.667v-14.19h21.333z"></path><path d="m457.85 250.33h15v15h-15z"></path><path d="m418.167 267.333v-21.335h16.29v-15h-114.083v15h82.793v21.335z"></path><path d="m427.831 396.96h15v15h-15z"></path><path d="m427.831 426.96h15v15h-15z"></path></g></svg>