<svg width="14" height="15" viewBox="0 0 14 15" fill="none" xmlns="http://www.w3.org/2000/svg">
<path d="M1.3125 2.5C0.587891 2.5 0 3.08789 0 3.8125C0 4.22539 0.194141 4.61367 0.525 4.8625L6.475 9.325C6.78672 9.55742 7.21328 9.55742 7.525 9.325L13.475 4.8625C13.8059 4.61367 14 4.22539 14 3.8125C14 3.08789 13.4121 2.5 12.6875 2.5H1.3125ZM0 5.5625V11.25C0 12.2152 0.784766 13 1.75 13H12.25C13.2152 13 14 12.2152 14 11.25V5.5625L8.05 10.025C7.42656 10.4926 6.57344 10.4926 5.95 10.025L0 5.5625Z" fill="currentColor"/>
</svg>
