<svg width="15" height="16" viewBox="0 0 15 16" fill="none" xmlns="http://www.w3.org/2000/svg">
<g clip-path="url(#clip0_1_640)">
<path d="M8.32812 2.5C8.32812 1.94687 7.88125 1.5 7.32812 1.5C6.775 1.5 6.32812 1.94687 6.32812 2.5V7H1.82812C1.275 7 0.828125 7.44687 0.828125 8C0.828125 8.55313 1.275 9 1.82812 9H6.32812V13.5C6.32812 14.0531 6.775 14.5 7.32812 14.5C7.88125 14.5 8.32812 14.0531 8.32812 13.5V9H12.8281C13.3813 9 13.8281 8.55313 13.8281 8C13.8281 7.44687 13.3813 7 12.8281 7H8.32812V2.5Z" fill="#B09578"/>
</g>
<defs>
<clipPath id="clip0_1_640">
<path d="M0.328125 0H14.3281V16H0.328125V0Z" fill="white"/>
</clipPath>
</defs>
</svg>
