<svg width="14" height="15" viewBox="0 0 14 15" fill="none" xmlns="http://www.w3.org/2000/svg">
<path d="M14 14.75H0V0.75H14V14.75Z" stroke="#E5E7EB"/>
<path d="M0.875 1.625H13.125C13.609 1.625 14 2.01602 14 2.5V3.375C14 3.85898 13.609 4.25 13.125 4.25H0.875C0.391016 4.25 0 3.85898 0 3.375V2.5C0 2.01602 0.391016 1.625 0.875 1.625ZM0.875 5.125H13.125V12.125C13.125 13.0902 12.3402 13.875 11.375 13.875H2.625C1.65977 13.875 0.875 13.0902 0.875 12.125V5.125ZM4.375 7.3125C4.375 7.55313 4.57187 7.75 4.8125 7.75H9.1875C9.42813 7.75 9.625 7.55313 9.625 7.3125C9.625 7.07187 9.42813 6.875 9.1875 6.875H4.8125C4.57187 6.875 4.375 7.07187 4.375 7.3125Z" fill="#343333"/>
</svg>
