<svg width="16" height="15" viewBox="0 0 16 15" fill="none" xmlns="http://www.w3.org/2000/svg">
<g clip-path="url(#clip0_1_274)">
<path d="M11.1562 4.03125C11.1562 5.52422 9.15742 8.18477 8.27969 9.28125C8.06914 9.54375 7.67813 9.54375 7.47031 9.28125C6.59258 8.18477 4.59375 5.52422 4.59375 4.03125C4.59375 2.21836 6.06211 0.75 7.875 0.75C9.68789 0.75 11.1562 2.21836 11.1562 4.03125ZM11.375 6.22969C11.4707 6.04102 11.5582 5.85234 11.6375 5.66641C11.6512 5.63359 11.6648 5.59805 11.6785 5.56523L14.8504 4.29648C15.2824 4.12422 15.75 4.44141 15.75 4.90625V12.3109C15.75 12.5789 15.5859 12.8195 15.3371 12.9207L11.375 14.5039V6.22969ZM3.7625 4.53164C3.82813 4.91719 3.95937 5.30547 4.1125 5.66641C4.1918 5.85234 4.2793 6.04102 4.375 6.22969V13.1039L0.899609 14.4957C0.467578 14.668 0 14.3508 0 13.8859V6.48125C0 6.21328 0.164062 5.97266 0.412891 5.87148L3.76523 4.53164H3.7625ZM8.96328 9.82812C9.34336 9.35234 9.93945 8.57852 10.5 7.72266V14.5395L5.25 13.0383V7.72266C5.81055 8.57852 6.40664 9.35234 6.78672 9.82812C7.34727 10.5281 8.40273 10.5281 8.96328 9.82812ZM7.875 4.90625C8.16508 4.90625 8.44328 4.79102 8.6484 4.5859C8.85352 4.38078 8.96875 4.10258 8.96875 3.8125C8.96875 3.52242 8.85352 3.24422 8.6484 3.0391C8.44328 2.83398 8.16508 2.71875 7.875 2.71875C7.58492 2.71875 7.30672 2.83398 7.1016 3.0391C6.89648 3.24422 6.78125 3.52242 6.78125 3.8125C6.78125 4.10258 6.89648 4.38078 7.1016 4.5859C7.30672 4.79102 7.58492 4.90625 7.875 4.90625Z" fill="currentColor"/>
</g>
<defs>
<clipPath id="clip0_1_274">
<path d="M0 0.75H15.75V14.75H0V0.75Z" fill="white"/>
</clipPath>
</defs>
</svg>
